<?xml version="1.0" encoding="UTF-8"?>
<svg id="Layer_2" xmlns="http://www.w3.org/2000/svg" viewBox="0 0 212.17 67.59">
  <defs>
    <style>
      .cls-1, .cls-2 {
        fill: #e28043;
      }

      .cls-3 {
        fill: #decfb3;
      }

      .cls-2 {
        font-family: Impact, Impact;
        font-size: 38px;
      }
    </style>
  </defs>
  <g id="Layer_1-2" data-name="Layer_1">
    <g id="TpMtvV.tif">
      <g>
        <path class="cls-3" d="M30.06,39.18c-1.04.77-2.11,1.51-3.12,2.32-3.72,2.99-7.42,6.01-11.13,9.02-2.46,1.99-4.91,4-7.37,5.98-1.67,1.35-3.54,1.64-5.47.7C.99,56.25.03,54.59.03,52.41c0-11.29-.07-22.59.03-33.88.04-4.13,1.7-7.76,4.45-10.85,2.6-2.92,5.85-4.75,9.67-5.54.83-.17,1.68-.31,2.53-.31,7.45-.02,14.9-.02,22.35,0,2.74,0,5.01,2.14,5.08,4.98.05,2.2-1.17,4.59-4.19,5.09-.57.09-1.15.16-1.72.17-6.38.01-12.76,0-19.14,0-.46,0-.91.03-1.37.05-3.93-.31-7.43,3.19-7.4,7.39,0,7.19-.02,14.39-.02,21.58,0,.19.09.37.15.62.18-.11.29-.16.38-.24,3.19-2.58,6.39-5.15,9.57-7.74.76-.62,1.45-1.34,2.17-2.01.16-.07.35-.12.49-.23,2.55-2.07,5.08-4.15,7.62-6.23,1.46-1.14,2.93-2.26,4.37-3.42,3.1-2.5,6.18-5.03,9.27-7.54,2.19-1.79,4.39-3.56,6.57-5.36,1.34-1.11,2.81-1.64,4.56-1.29,2.54.51,4.13,2.41,4.13,5.04,0,10.71,0,21.41,0,32.12,0,2.65,0,5.31,0,7.96,0,.35-.11.71-.16,1.06-1.95-1.93-3.91-3.85-5.85-5.79-1.38-1.38-2.73-2.78-4.1-4.18.01-.18.04-.36.04-.55,0-6.46,0-12.92,0-19.37,0-.2-.07-.39-.11-.65-.18.09-.29.13-.38.2-2.66,2.17-5.33,4.33-7.97,6.51-1,.83-1.93,1.72-2.9,2.59-.11.05-.24.07-.33.14-2.55,2.06-5.11,4.12-7.65,6.18-.06.05-.06.17-.08.25Z"/>
        <path class="cls-1" d="M49.44,43.86c1.36,1.39,2.72,2.8,4.1,4.18,1.94,1.94,3.9,3.86,5.85,5.79,1.58,1.61,3.15,3.23,4.73,4.83,2.18,2.21,2.27,5.38.2,7.44-2.06,2.06-5.24,1.97-7.44-.19-1.56-1.54-3.15-3.05-4.72-4.58-1.92-1.95-3.82-3.9-5.75-5.83-1.44-1.44-2.9-2.84-4.36-4.27-.09-.12-.16-.26-.27-.37-3.9-3.9-7.81-7.8-11.72-11.69.03-.09.03-.21.08-.25,2.55-2.07,5.1-4.13,7.65-6.18.09-.07.22-.1.33-.14,3.13,3.15,6.26,6.3,9.4,9.45.62.62,1.28,1.22,1.92,1.82Z"/>
        <path class="cls-3" d="M42.04,51.23c1.45,1.42,2.92,2.83,4.36,4.27,1.93,1.93,3.84,3.89,5.75,5.83-9.64,0-19.28.01-28.92,0-2.32,0-4.38-2.22-4.55-4.54-.26-3.58,2.49-5.61,5.52-5.56,5.95.09,11.9,0,17.85,0Z"/>
        <path class="cls-1" d="M30.66,25.27c-2.54,2.08-5.08,4.15-7.62,6.23-.13.11-.32.15-.49.23-.11-.14-.2-.3-.33-.43-3.73-3.74-7.47-7.48-11.21-11.21-.21-.21-.47-.38-.71-.56-.04-4.2,3.47-7.7,7.4-7.39,1.79,1.83,3.57,3.66,5.37,5.48,2.53,2.56,5.06,5.11,7.59,7.66Z"/>
      </g>
    </g>
    <text class="cls-2" transform="translate(62.96 48.03)"><tspan x="0" y="0">SQcircuit</tspan></text>
  </g>
</svg>